<svg xmlns="http://www.w3.org/2000/svg" xmlns:xlink="http://www.w3.org/1999/xlink" viewBox="0 0 48 48"><defs><style>.a{fill:url(#a);}.b{fill:#fff;fill-rule:evenodd;}</style><linearGradient id="a" y1="24" x2="48" y2="24" gradientUnits="userSpaceOnUse"><stop offset="0" stop-color="#fff"/><stop offset="0.44413" stop-color="#484848"/><stop offset="0.61732"/><stop offset="1"/></linearGradient></defs><circle class="a" cx="24" cy="24" r="24"/><path class="b" d="M673.81757,381.25184a2.51483,2.51483,0,0,1,0,3.55361l-.01211.0121a2.51482,2.51482,0,0,1-3.55361,0l-4.86656-4.86655-4.86856,4.86655a2.51482,2.51482,0,0,1-3.55361,0l-.0121-.0121a2.51118,2.51118,0,0,1,0-3.55361l4.86856-4.86655-4.86856-4.86858a2.51118,2.51118,0,0,1,0-3.55361l.0121-.0121a2.51118,2.51118,0,0,1,3.55361,0l4.86856,4.86857,4.86656-4.86857a2.51118,2.51118,0,0,1,3.55361,0l.01211.0121a2.51483,2.51483,0,0,1,0,3.55361l-4.86655,4.86858Z" transform="translate(-641.5 -352.5)"/></svg>