<svg xmlns="http://www.w3.org/2000/svg" width="64%" height="64%" viewBox="0 0 44.843 42.546">
  <path id="twitter" d="M44.12,4.946a16.818,16.818,0,0,1-5.212,1.665A10.354,10.354,0,0,0,42.887.784a16.612,16.612,0,0,1-5.736,2.552A8.523,8.523,0,0,0,30.545,0c-5.008,0-9.039,4.737-9.039,10.545a12.59,12.59,0,0,0,.21,2.4C14.2,12.522,7.542,8.321,3.072,1.922A11.985,11.985,0,0,0,1.834,7.251a11.109,11.109,0,0,0,4.018,8.761,7.985,7.985,0,0,1-4.087-1.3v.116c0,5.123,3.135,9.378,7.247,10.359a7.823,7.823,0,0,1-2.371.347,6.9,6.9,0,0,1-1.712-.18C6.1,29.53,9.425,32.6,13.379,32.7A16.612,16.612,0,0,1,2.165,37.2,14.566,14.566,0,0,1,0,37.051a22.92,22.92,0,0,0,13.876,4.731,23.3,23.3,0,0,0,17.768-8.129c5.163-5.719,7.977-14.126,7.977-21.871,0-.466-.014-.916-.033-1.363A19.975,19.975,0,0,0,44.12,4.946Z" transform="matrix(1, 0.017, -0.017, 1, 0.729, 0)" fill="#03a9f4"/>
</svg>
