<svg xmlns="http://www.w3.org/2000/svg" xmlns:xlink="http://www.w3.org/1999/xlink" viewBox="0 0 57.99463 58.00049"><defs><style>.a{fill:none;}.b{isolation:isolate;}.c{opacity:0.95;mix-blend-mode:darken;}.d{clip-path:url(#a);}.e{fill:#f7f0f0;}</style><clipPath id="a" transform="translate(-636.3833 -347.3833)"><path class="a" d="M687.45937,389.1262a6.58252,6.58252,0,0,1,0,9.30147l-.0317.03168a6.58249,6.58249,0,0,1-9.30148,0L665.404,385.73711a.02239.02239,0,0,0-.03166,0l-12.72749,12.72224a6.58248,6.58248,0,0,1-9.30147,0l-.03167-.03168a6.573,6.573,0,0,1,0-9.30147L656.03914,376.404a.02239.02239,0,0,0,0-.03167l-12.71166-12.71169a6.59952,6.59952,0,0,1,0-9.33313h0a6.59952,6.59952,0,0,1,9.33314,0l12.71165,12.71167a.02237.02237,0,0,0,.03166,0l12.72223-12.72751a6.573,6.573,0,0,1,9.30148,0l.0317.03167a6.58253,6.58253,0,0,1,0,9.30148L674.73713,376.3723a.02239.02239,0,0,0,0,.03166Z"/></clipPath></defs><g class="b"><g class="c"><g class="d"><rect class="e" width="57.99463" height="58.00049"/></g></g></g></svg>