<svg xmlns="http://www.w3.org/2000/svg" viewBox="0 0 48 48.2"><path d="M707,400.7l-.3-1.1a6.1,6.1,0,0,0-.9-1.8,13.8,13.8,0,0,0-2.2-2.6L693.4,385h0c-.9-1-.9-1.1.3-2.3,3.6-3.5,7-7.2,10.8-10.6s2.4-11.1-3-12.1h-2.1a10.4,10.4,0,0,0-4.9,3l-9.8,10c-1.7,1.6-1.9,1.4-3.8-.5l-9.1-9.1a11.2,11.2,0,0,0-4.9-3.4h-2.4c-2.5.8-4.5,2.2-5.2,5h0l-.3.9v1.4l.3,1.1a6.1,6.1,0,0,0,.9,1.8,13.8,13.8,0,0,0,2.2,2.6L672.6,383h0c.9,1,.9,1.1-.3,2.3-3.6,3.5-7,7.2-10.8,10.6s-2.4,11.1,3,12.1h2.1a10.4,10.4,0,0,0,4.9-3l9.8-10c1.7-1.6,1.9-1.4,3.8.5l9.1,9.1a11.2,11.2,0,0,0,4.9,3.4h2.4c2.5-.8,4.5-2.2,5.2-5h0l.3-.9Z" transform="translate(-659 -359.9)"/></svg>